<?xml version="1.0" encoding="UTF-8"?>
<svg xmlns="http://www.w3.org/2000/svg" xmlns:xlink="http://www.w3.org/1999/xlink" viewBox="0 0 48 48" width="48px" height="48px">
<g id="surface12067725">
<path style=" stroke:none;fill-rule:nonzero;fill:rgb(98.431373%,78.823531%,11.372549%);fill-opacity:1;" d="M 20.800781 4.800781 C 11.980469 4.800781 4.800781 11.980469 4.800781 20.800781 C 4.800781 29.617188 11.980469 36.800781 20.800781 36.800781 C 24.632812 36.800781 28.15625 35.4375 30.914062 33.179688 L 40.46875 42.730469 C 40.871094 43.148438 41.464844 43.316406 42.027344 43.171875 C 42.585938 43.023438 43.023438 42.585938 43.171875 42.027344 C 43.316406 41.464844 43.148438 40.871094 42.730469 40.46875 L 33.179688 30.914062 C 35.4375 28.15625 36.800781 24.632812 36.800781 20.800781 C 36.800781 11.980469 29.617188 4.800781 20.800781 4.800781 Z M 20.800781 8 C 27.886719 8 33.601562 13.710938 33.601562 20.800781 C 33.601562 27.886719 27.886719 33.601562 20.800781 33.601562 C 13.710938 33.601562 8 27.886719 8 20.800781 C 8 13.710938 13.710938 8 20.800781 8 Z M 20.800781 8 "/>
</g>
</svg>
