<?xml version="1.0" encoding="UTF-8"?>
<svg xmlns="http://www.w3.org/2000/svg" xmlns:xlink="http://www.w3.org/1999/xlink" viewBox="0 0 48 48" width="48px" height="48px">
<g id="surface12063030">
<path style="fill-rule:nonzero;fill:rgb(98.431373%,78.823531%,11.372549%);fill-opacity:1;stroke-width:2;stroke-linecap:butt;stroke-linejoin:round;stroke:rgb(80.000001%,80.000001%,80.000001%);stroke-opacity:1;stroke-miterlimit:10;" d="M 89.329342 15.488827 L 140.246996 55.610918 C 146.7215 60.711184 150.504197 68.48909 150.504197 76.720352 L 150.504197 145.120583 C 150.504197 150.008338 146.423985 154.088551 141.53623 154.088551 L 105.706863 154.088551 C 100.819108 154.088551 96.753063 150.008338 96.753063 145.120583 L 96.753063 109.291216 C 96.753063 108.228661 96.016358 107.506123 94.953802 107.506123 L 77.046202 107.506123 C 75.983647 107.506123 75.246942 108.228661 75.246942 109.291216 L 75.246942 145.120583 C 75.246942 150.008338 71.180897 154.088551 66.293142 154.088551 L 30.463774 154.088551 C 25.57602 154.088551 21.495807 150.008338 21.495807 145.120583 L 21.495807 76.720352 C 21.495807 68.48909 25.278504 60.711184 31.753008 55.610918 L 82.670662 15.488827 C 83.577376 14.780457 84.682434 14.369602 85.829993 14.3271 C 87.090892 14.298765 88.323457 14.70962 89.329342 15.488827 Z M 38.397521 64.054692 C 34.515652 67.114851 32.248867 71.775928 32.248867 76.720352 L 32.248867 143.33549 L 64.493881 143.33549 L 64.493881 109.291216 C 64.493881 102.434192 70.175011 96.753063 77.046202 96.753063 L 94.953802 96.753063 C 101.824994 96.753063 107.506123 102.434192 107.506123 109.291216 L 107.506123 143.33549 L 139.751137 143.33549 L 139.751137 76.720352 C 139.751137 71.775928 137.484352 67.114851 133.602483 64.054692 L 86.000002 26.553571 Z M 38.397521 64.054692 " transform="matrix(0.275721,0,0,0.275721,0.288,0.288)"/>
<path style=" stroke:none;fill-rule:nonzero;fill:rgb(98.431373%,78.823531%,11.372549%);fill-opacity:1;" d="M 23.953125 4.238281 C 23.636719 4.25 23.332031 4.363281 23.082031 4.558594 L 9.042969 15.621094 C 7.257812 17.027344 6.214844 19.171875 6.214844 21.441406 L 6.214844 40.300781 C 6.214844 41.648438 7.339844 42.773438 8.6875 42.773438 L 18.566406 42.773438 C 19.914062 42.773438 21.035156 41.648438 21.035156 40.300781 L 21.035156 30.421875 C 21.035156 30.128906 21.238281 29.929688 21.53125 29.929688 L 26.46875 29.929688 C 26.761719 29.929688 26.964844 30.128906 26.964844 30.421875 L 26.964844 40.300781 C 26.964844 41.648438 28.085938 42.773438 29.433594 42.773438 L 39.3125 42.773438 C 40.660156 42.773438 41.785156 41.648438 41.785156 40.300781 L 41.785156 21.441406 C 41.785156 19.171875 40.742188 17.027344 38.957031 15.621094 L 24.917969 4.558594 C 24.640625 4.34375 24.300781 4.230469 23.953125 4.238281 Z M 24 7.609375 L 37.125 17.949219 C 38.195312 18.792969 38.820312 20.078125 38.820312 21.441406 L 38.820312 39.808594 L 29.929688 39.808594 L 29.929688 30.421875 C 29.929688 28.53125 28.363281 26.964844 26.46875 26.964844 L 21.53125 26.964844 C 19.636719 26.964844 18.070312 28.53125 18.070312 30.421875 L 18.070312 39.808594 L 9.179688 39.808594 L 9.179688 21.441406 C 9.179688 20.078125 9.804688 18.792969 10.875 17.949219 Z M 24 7.609375 "/>
</g>
</svg>
